<mxfile host="app.diagrams.net" agent="Mozilla/5.0 (Windows NT 10.0; Win64; x64) AppleWebKit/537.36 (KHTML, like Gecko) Chrome/131.0.0.0 Safari/537.36" version="24.9.1">
  <diagram name="第 1 页" id="cGdT9HOxVQWvnpg_4Y84">
    <mxGraphModel dx="872" dy="324" grid="1" gridSize="10" guides="1" tooltips="1" connect="1" arrows="1" fold="1" page="1" pageScale="1" pageWidth="827" pageHeight="1169" math="0" shadow="0">
      <root>
        <mxCell id="0" />
        <mxCell id="1" parent="0" />
        <mxCell id="LeQnPKJJJZOY4ZSQB_88-2" value="USER" style="whiteSpace=wrap;html=1;align=center;" parent="1" vertex="1">
          <mxGeometry x="640" y="800" width="100" height="40" as="geometry" />
        </mxCell>
        <mxCell id="LeQnPKJJJZOY4ZSQB_88-3" value="user_id" style="ellipse;whiteSpace=wrap;html=1;align=center;fontStyle=4" parent="1" vertex="1">
          <mxGeometry x="720" y="690" width="70" height="40" as="geometry" />
        </mxCell>
        <mxCell id="LeQnPKJJJZOY4ZSQB_88-6" value="password" style="ellipse;whiteSpace=wrap;html=1;align=center;" parent="1" vertex="1">
          <mxGeometry x="790" y="770" width="70" height="40" as="geometry" />
        </mxCell>
        <mxCell id="LeQnPKJJJZOY4ZSQB_88-7" value="phone" style="ellipse;whiteSpace=wrap;html=1;align=center;" parent="1" vertex="1">
          <mxGeometry x="860" y="793" width="70" height="40" as="geometry" />
        </mxCell>
        <mxCell id="LeQnPKJJJZOY4ZSQB_88-8" value="email" style="ellipse;whiteSpace=wrap;html=1;align=center;" parent="1" vertex="1">
          <mxGeometry x="795" y="820" width="70" height="40" as="geometry" />
        </mxCell>
        <mxCell id="LeQnPKJJJZOY4ZSQB_88-9" value="bdate" style="ellipse;whiteSpace=wrap;html=1;align=center;" parent="1" vertex="1">
          <mxGeometry x="840" y="860" width="70" height="40" as="geometry" />
        </mxCell>
        <mxCell id="LeQnPKJJJZOY4ZSQB_88-10" value="role" style="ellipse;whiteSpace=wrap;html=1;align=center;" parent="1" vertex="1">
          <mxGeometry x="757" y="900" width="70" height="40" as="geometry" />
        </mxCell>
        <mxCell id="LeQnPKJJJZOY4ZSQB_88-14" value="name" style="ellipse;whiteSpace=wrap;html=1;align=center;" parent="1" vertex="1">
          <mxGeometry x="760" y="730" width="70" height="40" as="geometry" />
        </mxCell>
        <mxCell id="LeQnPKJJJZOY4ZSQB_88-15" value="fname" style="ellipse;whiteSpace=wrap;html=1;align=center;" parent="1" vertex="1">
          <mxGeometry x="800" y="680" width="70" height="40" as="geometry" />
        </mxCell>
        <mxCell id="LeQnPKJJJZOY4ZSQB_88-17" value="lname" style="ellipse;whiteSpace=wrap;html=1;align=center;" parent="1" vertex="1">
          <mxGeometry x="840" y="720" width="70" height="40" as="geometry" />
        </mxCell>
        <mxCell id="LeQnPKJJJZOY4ZSQB_88-28" value="CLOTHES" style="whiteSpace=wrap;html=1;align=center;" parent="1" vertex="1">
          <mxGeometry x="200" y="680" width="100" height="40" as="geometry" />
        </mxCell>
        <mxCell id="LeQnPKJJJZOY4ZSQB_88-29" value="category" style="ellipse;whiteSpace=wrap;html=1;align=center;" parent="1" vertex="1">
          <mxGeometry x="200" y="596" width="70" height="40" as="geometry" />
        </mxCell>
        <mxCell id="LeQnPKJJJZOY4ZSQB_88-35" value="description" style="ellipse;whiteSpace=wrap;html=1;align=center;fontStyle=0" parent="1" vertex="1">
          <mxGeometry x="273" y="620" width="80" height="40" as="geometry" />
        </mxCell>
        <mxCell id="LeQnPKJJJZOY4ZSQB_88-37" value="price" style="ellipse;whiteSpace=wrap;html=1;align=center;fontStyle=0" parent="1" vertex="1">
          <mxGeometry x="269" y="575" width="63" height="40" as="geometry" />
        </mxCell>
        <mxCell id="LeQnPKJJJZOY4ZSQB_88-38" value="" style="endArrow=none;html=1;rounded=0;exitX=0;exitY=1;exitDx=0;exitDy=0;entryX=0.5;entryY=0;entryDx=0;entryDy=0;" parent="1" source="LeQnPKJJJZOY4ZSQB_88-35" target="LeQnPKJJJZOY4ZSQB_88-28" edge="1">
          <mxGeometry relative="1" as="geometry">
            <mxPoint x="370" y="690" as="sourcePoint" />
            <mxPoint x="530" y="690" as="targetPoint" />
          </mxGeometry>
        </mxCell>
        <mxCell id="LeQnPKJJJZOY4ZSQB_88-39" value="" style="endArrow=none;html=1;rounded=0;exitX=0;exitY=1;exitDx=0;exitDy=0;entryX=0.5;entryY=0;entryDx=0;entryDy=0;" parent="1" source="LeQnPKJJJZOY4ZSQB_88-37" target="LeQnPKJJJZOY4ZSQB_88-28" edge="1">
          <mxGeometry relative="1" as="geometry">
            <mxPoint x="370" y="690" as="sourcePoint" />
            <mxPoint x="530" y="690" as="targetPoint" />
          </mxGeometry>
        </mxCell>
        <mxCell id="LeQnPKJJJZOY4ZSQB_88-40" value="" style="endArrow=none;html=1;rounded=0;exitX=0.5;exitY=1;exitDx=0;exitDy=0;entryX=0.5;entryY=0;entryDx=0;entryDy=0;" parent="1" source="LeQnPKJJJZOY4ZSQB_88-29" target="LeQnPKJJJZOY4ZSQB_88-28" edge="1">
          <mxGeometry relative="1" as="geometry">
            <mxPoint x="370" y="690" as="sourcePoint" />
            <mxPoint x="530" y="690" as="targetPoint" />
          </mxGeometry>
        </mxCell>
        <mxCell id="LeQnPKJJJZOY4ZSQB_88-53" value="" style="endArrow=none;html=1;rounded=0;exitX=0.5;exitY=0;exitDx=0;exitDy=0;entryX=1;entryY=1;entryDx=0;entryDy=0;" parent="1" source="LeQnPKJJJZOY4ZSQB_88-28" target="LeQnPKJJJZOY4ZSQB_88-65" edge="1">
          <mxGeometry relative="1" as="geometry">
            <mxPoint x="370" y="770" as="sourcePoint" />
            <mxPoint x="280" y="756" as="targetPoint" />
          </mxGeometry>
        </mxCell>
        <mxCell id="LeQnPKJJJZOY4ZSQB_88-54" value="clothes_id" style="ellipse;whiteSpace=wrap;html=1;align=center;fontStyle=4" parent="1" vertex="1">
          <mxGeometry x="117.5" y="640" width="75" height="40" as="geometry" />
        </mxCell>
        <mxCell id="LeQnPKJJJZOY4ZSQB_88-55" value="" style="endArrow=none;html=1;rounded=0;exitX=0.5;exitY=0;exitDx=0;exitDy=0;entryX=1;entryY=0.5;entryDx=0;entryDy=0;" parent="1" source="LeQnPKJJJZOY4ZSQB_88-28" target="LeQnPKJJJZOY4ZSQB_88-54" edge="1">
          <mxGeometry relative="1" as="geometry">
            <mxPoint x="260" y="730" as="sourcePoint" />
            <mxPoint x="360" y="806" as="targetPoint" />
          </mxGeometry>
        </mxCell>
        <mxCell id="LeQnPKJJJZOY4ZSQB_88-56" value="IMAGE" style="whiteSpace=wrap;html=1;align=center;" parent="1" vertex="1">
          <mxGeometry x="431.5" y="1040" width="100" height="40" as="geometry" />
        </mxCell>
        <mxCell id="LeQnPKJJJZOY4ZSQB_88-57" value="filename" style="ellipse;whiteSpace=wrap;html=1;align=center;fontStyle=4" parent="1" vertex="1">
          <mxGeometry x="397.5" y="1090" width="70" height="40" as="geometry" />
        </mxCell>
        <mxCell id="LeQnPKJJJZOY4ZSQB_88-58" value="path" style="ellipse;whiteSpace=wrap;html=1;align=center;" parent="1" vertex="1">
          <mxGeometry x="487.5" y="1090" width="70" height="40" as="geometry" />
        </mxCell>
        <mxCell id="LeQnPKJJJZOY4ZSQB_88-60" value="" style="endArrow=none;html=1;rounded=0;exitX=0.5;exitY=1;exitDx=0;exitDy=0;" parent="1" source="LeQnPKJJJZOY4ZSQB_88-56" target="LeQnPKJJJZOY4ZSQB_88-57" edge="1">
          <mxGeometry relative="1" as="geometry">
            <mxPoint x="408" y="1070" as="sourcePoint" />
            <mxPoint x="568" y="1070" as="targetPoint" />
          </mxGeometry>
        </mxCell>
        <mxCell id="LeQnPKJJJZOY4ZSQB_88-61" value="" style="endArrow=none;html=1;rounded=0;exitX=0.5;exitY=1;exitDx=0;exitDy=0;entryX=0;entryY=0;entryDx=0;entryDy=0;" parent="1" source="LeQnPKJJJZOY4ZSQB_88-56" target="LeQnPKJJJZOY4ZSQB_88-58" edge="1">
          <mxGeometry relative="1" as="geometry">
            <mxPoint x="408" y="1070" as="sourcePoint" />
            <mxPoint x="568" y="1070" as="targetPoint" />
          </mxGeometry>
        </mxCell>
        <mxCell id="LeQnPKJJJZOY4ZSQB_88-63" value="CLOTHES_COLOR" style="shape=ext;margin=3;double=1;whiteSpace=wrap;html=1;align=center;" parent="1" vertex="1">
          <mxGeometry x="185" y="825" width="130" height="40" as="geometry" />
        </mxCell>
        <mxCell id="LeQnPKJJJZOY4ZSQB_88-64" value="&lt;span style=&quot;border-bottom: 1px dotted&quot;&gt;color&lt;/span&gt;" style="ellipse;whiteSpace=wrap;html=1;align=center;" parent="1" vertex="1">
          <mxGeometry x="90" y="800" width="70" height="40" as="geometry" />
        </mxCell>
        <mxCell id="LeQnPKJJJZOY4ZSQB_88-65" value="name" style="ellipse;whiteSpace=wrap;html=1;align=center;" parent="1" vertex="1">
          <mxGeometry x="130" y="596" width="62.5" height="40" as="geometry" />
        </mxCell>
        <mxCell id="LeQnPKJJJZOY4ZSQB_88-70" value="" style="endArrow=none;html=1;rounded=0;exitX=0;exitY=0.5;exitDx=0;exitDy=0;" parent="1" source="LeQnPKJJJZOY4ZSQB_88-63" target="LeQnPKJJJZOY4ZSQB_88-64" edge="1">
          <mxGeometry relative="1" as="geometry">
            <mxPoint x="325" y="870" as="sourcePoint" />
            <mxPoint x="485" y="870" as="targetPoint" />
          </mxGeometry>
        </mxCell>
        <mxCell id="LeQnPKJJJZOY4ZSQB_88-73" value="HAVE_COLORS" style="shape=rhombus;double=1;perimeter=rhombusPerimeter;whiteSpace=wrap;html=1;align=center;" parent="1" vertex="1">
          <mxGeometry x="180" y="740" width="140" height="60" as="geometry" />
        </mxCell>
        <mxCell id="LeQnPKJJJZOY4ZSQB_88-77" value="" style="endArrow=none;html=1;rounded=0;exitX=0.5;exitY=0;exitDx=0;exitDy=0;entryX=0.5;entryY=1;entryDx=0;entryDy=0;shape=link;" parent="1" source="LeQnPKJJJZOY4ZSQB_88-63" target="LeQnPKJJJZOY4ZSQB_88-73" edge="1">
          <mxGeometry relative="1" as="geometry">
            <mxPoint x="325" y="790" as="sourcePoint" />
            <mxPoint x="485" y="790" as="targetPoint" />
          </mxGeometry>
        </mxCell>
        <mxCell id="LeQnPKJJJZOY4ZSQB_88-78" value="N" style="resizable=0;html=1;whiteSpace=wrap;align=right;verticalAlign=bottom;" parent="LeQnPKJJJZOY4ZSQB_88-77" connectable="0" vertex="1">
          <mxGeometry x="1" relative="1" as="geometry">
            <mxPoint x="-4" y="17" as="offset" />
          </mxGeometry>
        </mxCell>
        <mxCell id="LeQnPKJJJZOY4ZSQB_88-80" value="" style="endArrow=none;html=1;rounded=0;exitX=0.5;exitY=1;exitDx=0;exitDy=0;entryX=0.5;entryY=0;entryDx=0;entryDy=0;" parent="1" source="LeQnPKJJJZOY4ZSQB_88-28" target="LeQnPKJJJZOY4ZSQB_88-73" edge="1">
          <mxGeometry relative="1" as="geometry">
            <mxPoint x="330" y="790" as="sourcePoint" />
            <mxPoint x="490" y="790" as="targetPoint" />
          </mxGeometry>
        </mxCell>
        <mxCell id="LeQnPKJJJZOY4ZSQB_88-81" value="1" style="resizable=0;html=1;whiteSpace=wrap;align=right;verticalAlign=bottom;" parent="LeQnPKJJJZOY4ZSQB_88-80" connectable="0" vertex="1">
          <mxGeometry x="1" relative="1" as="geometry">
            <mxPoint x="-3" y="3" as="offset" />
          </mxGeometry>
        </mxCell>
        <mxCell id="LeQnPKJJJZOY4ZSQB_88-82" value="HAVE_IMAGE" style="shape=rhombus;perimeter=rhombusPerimeter;whiteSpace=wrap;html=1;align=center;" parent="1" vertex="1">
          <mxGeometry x="250" y="1030" width="120" height="60" as="geometry" />
        </mxCell>
        <mxCell id="LeQnPKJJJZOY4ZSQB_88-83" value="" style="endArrow=none;html=1;rounded=0;exitX=0.5;exitY=1;exitDx=0;exitDy=0;entryX=0;entryY=0.5;entryDx=0;entryDy=0;shape=link;" parent="1" source="w-YQBFerk2edwHT0W-1V-1" target="LeQnPKJJJZOY4ZSQB_88-82" edge="1">
          <mxGeometry relative="1" as="geometry">
            <mxPoint x="330" y="850" as="sourcePoint" />
            <mxPoint x="490" y="850" as="targetPoint" />
          </mxGeometry>
        </mxCell>
        <mxCell id="LeQnPKJJJZOY4ZSQB_88-84" value="1" style="resizable=0;html=1;whiteSpace=wrap;align=right;verticalAlign=bottom;" parent="LeQnPKJJJZOY4ZSQB_88-83" connectable="0" vertex="1">
          <mxGeometry x="1" relative="1" as="geometry">
            <mxPoint x="13" y="-4" as="offset" />
          </mxGeometry>
        </mxCell>
        <mxCell id="LeQnPKJJJZOY4ZSQB_88-85" value="" style="endArrow=none;html=1;rounded=0;exitX=0;exitY=0.5;exitDx=0;exitDy=0;entryX=1;entryY=0.5;entryDx=0;entryDy=0;" parent="1" source="LeQnPKJJJZOY4ZSQB_88-56" target="LeQnPKJJJZOY4ZSQB_88-82" edge="1">
          <mxGeometry relative="1" as="geometry">
            <mxPoint x="355" y="870" as="sourcePoint" />
            <mxPoint x="490" y="860" as="targetPoint" />
          </mxGeometry>
        </mxCell>
        <mxCell id="LeQnPKJJJZOY4ZSQB_88-86" value="1" style="resizable=0;html=1;whiteSpace=wrap;align=right;verticalAlign=bottom;" parent="LeQnPKJJJZOY4ZSQB_88-85" connectable="0" vertex="1">
          <mxGeometry x="1" relative="1" as="geometry">
            <mxPoint x="8" as="offset" />
          </mxGeometry>
        </mxCell>
        <mxCell id="LeQnPKJJJZOY4ZSQB_88-88" value="UPLOADS" style="shape=rhombus;perimeter=rhombusPerimeter;whiteSpace=wrap;html=1;align=center;" parent="1" vertex="1">
          <mxGeometry x="627.5" y="1030" width="120" height="60" as="geometry" />
        </mxCell>
        <mxCell id="LeQnPKJJJZOY4ZSQB_88-89" value="" style="endArrow=none;html=1;rounded=0;exitX=0.5;exitY=1;exitDx=0;exitDy=0;entryX=0.5;entryY=0;entryDx=0;entryDy=0;" parent="1" source="LeQnPKJJJZOY4ZSQB_88-2" target="LeQnPKJJJZOY4ZSQB_88-88" edge="1">
          <mxGeometry relative="1" as="geometry">
            <mxPoint x="332" y="770" as="sourcePoint" />
            <mxPoint x="492" y="770" as="targetPoint" />
          </mxGeometry>
        </mxCell>
        <mxCell id="LeQnPKJJJZOY4ZSQB_88-90" value="1" style="resizable=0;html=1;whiteSpace=wrap;align=right;verticalAlign=bottom;" parent="LeQnPKJJJZOY4ZSQB_88-89" connectable="0" vertex="1">
          <mxGeometry x="1" relative="1" as="geometry">
            <mxPoint x="-4" y="1" as="offset" />
          </mxGeometry>
        </mxCell>
        <mxCell id="LeQnPKJJJZOY4ZSQB_88-92" value="" style="endArrow=none;html=1;rounded=0;exitX=1;exitY=0.5;exitDx=0;exitDy=0;entryX=0;entryY=0.5;entryDx=0;entryDy=0;" parent="1" source="LeQnPKJJJZOY4ZSQB_88-56" target="LeQnPKJJJZOY4ZSQB_88-88" edge="1">
          <mxGeometry relative="1" as="geometry">
            <mxPoint x="710" y="870" as="sourcePoint" />
            <mxPoint x="690" y="870" as="targetPoint" />
          </mxGeometry>
        </mxCell>
        <mxCell id="LeQnPKJJJZOY4ZSQB_88-93" value="N" style="resizable=0;html=1;whiteSpace=wrap;align=right;verticalAlign=bottom;" parent="LeQnPKJJJZOY4ZSQB_88-92" connectable="0" vertex="1">
          <mxGeometry x="1" relative="1" as="geometry">
            <mxPoint x="-2" y="20" as="offset" />
          </mxGeometry>
        </mxCell>
        <mxCell id="LeQnPKJJJZOY4ZSQB_88-97" value="upload_date" style="ellipse;whiteSpace=wrap;html=1;align=center;" parent="1" vertex="1">
          <mxGeometry x="715" y="1000" width="80" height="40" as="geometry" />
        </mxCell>
        <mxCell id="LeQnPKJJJZOY4ZSQB_88-98" value="" style="endArrow=none;html=1;rounded=0;exitX=0;exitY=1;exitDx=0;exitDy=0;entryX=1;entryY=0;entryDx=0;entryDy=0;" parent="1" source="LeQnPKJJJZOY4ZSQB_88-97" target="LeQnPKJJJZOY4ZSQB_88-88" edge="1">
          <mxGeometry relative="1" as="geometry">
            <mxPoint x="550" y="980" as="sourcePoint" />
            <mxPoint x="710" y="980" as="targetPoint" />
          </mxGeometry>
        </mxCell>
        <mxCell id="LeQnPKJJJZOY4ZSQB_88-99" value="ADD_TO_BAG" style="shape=rhombus;perimeter=rhombusPerimeter;whiteSpace=wrap;html=1;align=center;" parent="1" vertex="1">
          <mxGeometry x="446.5" y="790" width="135" height="60" as="geometry" />
        </mxCell>
        <mxCell id="LeQnPKJJJZOY4ZSQB_88-105" value="stock_qty" style="ellipse;whiteSpace=wrap;html=1;align=center;" parent="1" vertex="1">
          <mxGeometry x="82" y="980" width="75" height="40" as="geometry" />
        </mxCell>
        <mxCell id="LeQnPKJJJZOY4ZSQB_88-107" value="" style="endArrow=none;html=1;rounded=0;exitX=0;exitY=0.5;exitDx=0;exitDy=0;entryX=1;entryY=0.5;entryDx=0;entryDy=0;" parent="1" source="w-YQBFerk2edwHT0W-1V-1" target="LeQnPKJJJZOY4ZSQB_88-105" edge="1">
          <mxGeometry relative="1" as="geometry">
            <mxPoint x="94.5" y="980" as="sourcePoint" />
            <mxPoint x="469.5" y="960" as="targetPoint" />
          </mxGeometry>
        </mxCell>
        <mxCell id="LeQnPKJJJZOY4ZSQB_88-114" value="" style="endArrow=none;html=1;rounded=0;exitX=0;exitY=0.5;exitDx=0;exitDy=0;entryX=1;entryY=0.5;entryDx=0;entryDy=0;" parent="1" source="LeQnPKJJJZOY4ZSQB_88-2" target="LeQnPKJJJZOY4ZSQB_88-99" edge="1">
          <mxGeometry relative="1" as="geometry">
            <mxPoint x="410" y="790" as="sourcePoint" />
            <mxPoint x="551.5000000000002" y="810" as="targetPoint" />
          </mxGeometry>
        </mxCell>
        <mxCell id="LeQnPKJJJZOY4ZSQB_88-115" value="M" style="resizable=0;html=1;whiteSpace=wrap;align=right;verticalAlign=bottom;" parent="LeQnPKJJJZOY4ZSQB_88-114" connectable="0" vertex="1">
          <mxGeometry x="1" relative="1" as="geometry">
            <mxPoint x="5" y="-1" as="offset" />
          </mxGeometry>
        </mxCell>
        <mxCell id="LeQnPKJJJZOY4ZSQB_88-117" value="" style="endArrow=none;html=1;rounded=0;exitX=1;exitY=0;exitDx=0;exitDy=0;entryX=0;entryY=0.5;entryDx=0;entryDy=0;" parent="1" source="w-YQBFerk2edwHT0W-1V-1" target="LeQnPKJJJZOY4ZSQB_88-99" edge="1">
          <mxGeometry relative="1" as="geometry">
            <mxPoint x="330" y="790" as="sourcePoint" />
            <mxPoint x="490" y="790" as="targetPoint" />
          </mxGeometry>
        </mxCell>
        <mxCell id="LeQnPKJJJZOY4ZSQB_88-118" value="N" style="resizable=0;html=1;whiteSpace=wrap;align=right;verticalAlign=bottom;" parent="LeQnPKJJJZOY4ZSQB_88-117" connectable="0" vertex="1">
          <mxGeometry x="1" relative="1" as="geometry">
            <mxPoint x="10" y="23" as="offset" />
          </mxGeometry>
        </mxCell>
        <mxCell id="LeQnPKJJJZOY4ZSQB_88-119" value="purchase_qty" style="ellipse;whiteSpace=wrap;html=1;align=center;" parent="1" vertex="1">
          <mxGeometry x="370" y="780" width="90" height="40" as="geometry" />
        </mxCell>
        <mxCell id="LeQnPKJJJZOY4ZSQB_88-120" value="" style="endArrow=none;html=1;rounded=0;exitX=0;exitY=0;exitDx=0;exitDy=0;entryX=1;entryY=0.5;entryDx=0;entryDy=0;" parent="1" source="LeQnPKJJJZOY4ZSQB_88-99" target="LeQnPKJJJZOY4ZSQB_88-119" edge="1">
          <mxGeometry relative="1" as="geometry">
            <mxPoint x="330" y="710" as="sourcePoint" />
            <mxPoint x="490" y="710" as="targetPoint" />
          </mxGeometry>
        </mxCell>
        <mxCell id="LeQnPKJJJZOY4ZSQB_88-143" value="gender" style="ellipse;whiteSpace=wrap;html=1;align=center;" parent="1" vertex="1">
          <mxGeometry x="835" y="910" width="75" height="40" as="geometry" />
        </mxCell>
        <mxCell id="LeQnPKJJJZOY4ZSQB_88-145" value="gender" style="ellipse;whiteSpace=wrap;html=1;align=center;" parent="1" vertex="1">
          <mxGeometry x="227" y="535" width="63" height="40" as="geometry" />
        </mxCell>
        <mxCell id="LeQnPKJJJZOY4ZSQB_88-146" value="part" style="ellipse;whiteSpace=wrap;html=1;align=center;" parent="1" vertex="1">
          <mxGeometry x="170" y="555" width="60" height="40" as="geometry" />
        </mxCell>
        <mxCell id="LeQnPKJJJZOY4ZSQB_88-147" style="edgeStyle=orthogonalEdgeStyle;rounded=0;orthogonalLoop=1;jettySize=auto;html=1;exitX=0.5;exitY=1;exitDx=0;exitDy=0;" parent="1" source="LeQnPKJJJZOY4ZSQB_88-146" target="LeQnPKJJJZOY4ZSQB_88-146" edge="1">
          <mxGeometry relative="1" as="geometry" />
        </mxCell>
        <mxCell id="LeQnPKJJJZOY4ZSQB_88-148" value="" style="endArrow=none;html=1;rounded=0;exitX=0.5;exitY=1;exitDx=0;exitDy=0;entryX=0.5;entryY=0;entryDx=0;entryDy=0;" parent="1" source="LeQnPKJJJZOY4ZSQB_88-145" target="LeQnPKJJJZOY4ZSQB_88-29" edge="1">
          <mxGeometry relative="1" as="geometry">
            <mxPoint x="250" y="730" as="sourcePoint" />
            <mxPoint x="190" y="580" as="targetPoint" />
          </mxGeometry>
        </mxCell>
        <mxCell id="LeQnPKJJJZOY4ZSQB_88-149" value="" style="endArrow=none;html=1;rounded=0;exitX=1;exitY=1;exitDx=0;exitDy=0;entryX=0.5;entryY=0;entryDx=0;entryDy=0;" parent="1" source="LeQnPKJJJZOY4ZSQB_88-146" target="LeQnPKJJJZOY4ZSQB_88-29" edge="1">
          <mxGeometry relative="1" as="geometry">
            <mxPoint x="170" y="580" as="sourcePoint" />
            <mxPoint x="211" y="602" as="targetPoint" />
          </mxGeometry>
        </mxCell>
        <mxCell id="LeQnPKJJJZOY4ZSQB_88-161" value="" style="endArrow=none;html=1;rounded=0;exitX=0.5;exitY=1;exitDx=0;exitDy=0;entryX=1;entryY=0.5;entryDx=0;entryDy=0;" parent="1" source="LeQnPKJJJZOY4ZSQB_88-2" target="LeQnPKJJJZOY4ZSQB_88-163" edge="1">
          <mxGeometry relative="1" as="geometry">
            <mxPoint x="430" y="710" as="sourcePoint" />
            <mxPoint x="515" y="671.5" as="targetPoint" />
          </mxGeometry>
        </mxCell>
        <mxCell id="LeQnPKJJJZOY4ZSQB_88-162" value="M" style="resizable=0;html=1;whiteSpace=wrap;align=right;verticalAlign=bottom;" parent="LeQnPKJJJZOY4ZSQB_88-161" connectable="0" vertex="1">
          <mxGeometry x="1" relative="1" as="geometry">
            <mxPoint x="5" y="-2" as="offset" />
          </mxGeometry>
        </mxCell>
        <mxCell id="LeQnPKJJJZOY4ZSQB_88-163" value="TRIES_ON" style="shape=rhombus;perimeter=rhombusPerimeter;whiteSpace=wrap;html=1;align=center;" parent="1" vertex="1">
          <mxGeometry x="414" y="960" width="135" height="60" as="geometry" />
        </mxCell>
        <mxCell id="LeQnPKJJJZOY4ZSQB_88-164" value="try_on_date" style="ellipse;whiteSpace=wrap;html=1;align=center;" parent="1" vertex="1">
          <mxGeometry x="540" y="1000" width="80" height="40" as="geometry" />
        </mxCell>
        <mxCell id="LeQnPKJJJZOY4ZSQB_88-165" value="" style="endArrow=none;html=1;rounded=0;entryX=1;entryY=1;entryDx=0;entryDy=0;exitX=0;exitY=0.5;exitDx=0;exitDy=0;" parent="1" source="LeQnPKJJJZOY4ZSQB_88-164" target="LeQnPKJJJZOY4ZSQB_88-163" edge="1">
          <mxGeometry relative="1" as="geometry">
            <mxPoint x="585" y="760" as="sourcePoint" />
            <mxPoint x="790" y="748" as="targetPoint" />
          </mxGeometry>
        </mxCell>
        <mxCell id="LeQnPKJJJZOY4ZSQB_88-166" value="ADD_TO_FAVORITE" style="shape=rhombus;perimeter=rhombusPerimeter;whiteSpace=wrap;html=1;align=center;" parent="1" vertex="1">
          <mxGeometry x="409" y="880" width="145" height="60" as="geometry" />
        </mxCell>
        <mxCell id="LeQnPKJJJZOY4ZSQB_88-167" value="" style="endArrow=none;html=1;rounded=0;exitX=0.25;exitY=1;exitDx=0;exitDy=0;entryX=1;entryY=0.5;entryDx=0;entryDy=0;" parent="1" source="LeQnPKJJJZOY4ZSQB_88-2" target="LeQnPKJJJZOY4ZSQB_88-166" edge="1">
          <mxGeometry relative="1" as="geometry">
            <mxPoint x="505" y="650" as="sourcePoint" />
            <mxPoint x="388" y="683" as="targetPoint" />
          </mxGeometry>
        </mxCell>
        <mxCell id="LeQnPKJJJZOY4ZSQB_88-168" value="M" style="resizable=0;html=1;whiteSpace=wrap;align=right;verticalAlign=bottom;" parent="LeQnPKJJJZOY4ZSQB_88-167" connectable="0" vertex="1">
          <mxGeometry x="1" relative="1" as="geometry">
            <mxPoint x="6" y="-1" as="offset" />
          </mxGeometry>
        </mxCell>
        <mxCell id="LeQnPKJJJZOY4ZSQB_88-169" value="" style="endArrow=none;html=1;rounded=0;entryX=0;entryY=0.5;entryDx=0;entryDy=0;exitX=1;exitY=0.5;exitDx=0;exitDy=0;" parent="1" source="LeQnPKJJJZOY4ZSQB_88-63" target="LeQnPKJJJZOY4ZSQB_88-166" edge="1">
          <mxGeometry relative="1" as="geometry">
            <mxPoint x="350" y="840" as="sourcePoint" />
            <mxPoint x="388" y="743" as="targetPoint" />
          </mxGeometry>
        </mxCell>
        <mxCell id="LeQnPKJJJZOY4ZSQB_88-170" value="N" style="resizable=0;html=1;whiteSpace=wrap;align=right;verticalAlign=bottom;" parent="LeQnPKJJJZOY4ZSQB_88-169" connectable="0" vertex="1">
          <mxGeometry x="1" relative="1" as="geometry">
            <mxPoint x="8" y="-1" as="offset" />
          </mxGeometry>
        </mxCell>
        <mxCell id="LeQnPKJJJZOY4ZSQB_88-171" value="" style="endArrow=none;html=1;rounded=0;exitX=1;exitY=0.5;exitDx=0;exitDy=0;entryX=0;entryY=0.5;entryDx=0;entryDy=0;" parent="1" source="LeQnPKJJJZOY4ZSQB_88-63" target="LeQnPKJJJZOY4ZSQB_88-163" edge="1">
          <mxGeometry relative="1" as="geometry">
            <mxPoint x="293" y="850" as="sourcePoint" />
            <mxPoint x="473" y="778" as="targetPoint" />
          </mxGeometry>
        </mxCell>
        <mxCell id="LeQnPKJJJZOY4ZSQB_88-172" value="N" style="resizable=0;html=1;whiteSpace=wrap;align=right;verticalAlign=bottom;" parent="LeQnPKJJJZOY4ZSQB_88-171" connectable="0" vertex="1">
          <mxGeometry x="1" relative="1" as="geometry">
            <mxPoint x="11" y="-2" as="offset" />
          </mxGeometry>
        </mxCell>
        <mxCell id="LeQnPKJJJZOY4ZSQB_88-173" value="" style="endArrow=none;html=1;rounded=0;exitX=0.5;exitY=0;exitDx=0;exitDy=0;entryX=0.5;entryY=1;entryDx=0;entryDy=0;" parent="1" source="LeQnPKJJJZOY4ZSQB_88-56" target="LeQnPKJJJZOY4ZSQB_88-163" edge="1">
          <mxGeometry relative="1" as="geometry">
            <mxPoint x="430" y="710" as="sourcePoint" />
            <mxPoint x="590" y="710" as="targetPoint" />
          </mxGeometry>
        </mxCell>
        <mxCell id="LeQnPKJJJZOY4ZSQB_88-174" value="1" style="resizable=0;html=1;whiteSpace=wrap;align=right;verticalAlign=bottom;" parent="LeQnPKJJJZOY4ZSQB_88-173" connectable="0" vertex="1">
          <mxGeometry x="1" relative="1" as="geometry">
            <mxPoint x="12" y="15" as="offset" />
          </mxGeometry>
        </mxCell>
        <mxCell id="swclK0hr6jgIHcODTy4m-1" value="ORDER" style="whiteSpace=wrap;html=1;align=center;" parent="1" vertex="1">
          <mxGeometry x="459" y="640" width="110" height="40" as="geometry" />
        </mxCell>
        <mxCell id="swclK0hr6jgIHcODTy4m-9" value="" style="endArrow=none;html=1;rounded=0;exitX=0.5;exitY=1;exitDx=0;exitDy=0;entryX=1;entryY=0.5;entryDx=0;entryDy=0;" parent="1" source="LeQnPKJJJZOY4ZSQB_88-3" target="LeQnPKJJJZOY4ZSQB_88-2" edge="1">
          <mxGeometry relative="1" as="geometry">
            <mxPoint x="660" y="890" as="sourcePoint" />
            <mxPoint x="820" y="890" as="targetPoint" />
          </mxGeometry>
        </mxCell>
        <mxCell id="swclK0hr6jgIHcODTy4m-10" value="" style="endArrow=none;html=1;rounded=0;exitX=0;exitY=1;exitDx=0;exitDy=0;entryX=1;entryY=0.5;entryDx=0;entryDy=0;" parent="1" source="LeQnPKJJJZOY4ZSQB_88-14" target="LeQnPKJJJZOY4ZSQB_88-2" edge="1">
          <mxGeometry relative="1" as="geometry">
            <mxPoint x="660" y="890" as="sourcePoint" />
            <mxPoint x="820" y="890" as="targetPoint" />
          </mxGeometry>
        </mxCell>
        <mxCell id="swclK0hr6jgIHcODTy4m-11" value="" style="endArrow=none;html=1;rounded=0;exitX=0.5;exitY=1;exitDx=0;exitDy=0;entryX=1;entryY=0;entryDx=0;entryDy=0;" parent="1" source="LeQnPKJJJZOY4ZSQB_88-15" target="LeQnPKJJJZOY4ZSQB_88-14" edge="1">
          <mxGeometry relative="1" as="geometry">
            <mxPoint x="660" y="890" as="sourcePoint" />
            <mxPoint x="820" y="890" as="targetPoint" />
          </mxGeometry>
        </mxCell>
        <mxCell id="swclK0hr6jgIHcODTy4m-12" value="" style="endArrow=none;html=1;rounded=0;exitX=1;exitY=0;exitDx=0;exitDy=0;entryX=0;entryY=0.5;entryDx=0;entryDy=0;" parent="1" source="LeQnPKJJJZOY4ZSQB_88-14" target="LeQnPKJJJZOY4ZSQB_88-17" edge="1">
          <mxGeometry relative="1" as="geometry">
            <mxPoint x="660" y="890" as="sourcePoint" />
            <mxPoint x="820" y="890" as="targetPoint" />
          </mxGeometry>
        </mxCell>
        <mxCell id="swclK0hr6jgIHcODTy4m-15" value="" style="endArrow=none;html=1;rounded=0;exitX=0;exitY=0.5;exitDx=0;exitDy=0;entryX=1;entryY=0.5;entryDx=0;entryDy=0;" parent="1" source="LeQnPKJJJZOY4ZSQB_88-6" target="LeQnPKJJJZOY4ZSQB_88-2" edge="1">
          <mxGeometry relative="1" as="geometry">
            <mxPoint x="660" y="890" as="sourcePoint" />
            <mxPoint x="820" y="890" as="targetPoint" />
          </mxGeometry>
        </mxCell>
        <mxCell id="swclK0hr6jgIHcODTy4m-16" value="" style="endArrow=none;html=1;rounded=0;entryX=0;entryY=0.5;entryDx=0;entryDy=0;exitX=1;exitY=0.5;exitDx=0;exitDy=0;" parent="1" source="LeQnPKJJJZOY4ZSQB_88-2" target="LeQnPKJJJZOY4ZSQB_88-7" edge="1">
          <mxGeometry relative="1" as="geometry">
            <mxPoint x="770" y="830" as="sourcePoint" />
            <mxPoint x="820" y="890" as="targetPoint" />
          </mxGeometry>
        </mxCell>
        <mxCell id="swclK0hr6jgIHcODTy4m-18" value="" style="endArrow=none;html=1;rounded=0;exitX=1;exitY=0.5;exitDx=0;exitDy=0;entryX=0;entryY=0.5;entryDx=0;entryDy=0;" parent="1" source="LeQnPKJJJZOY4ZSQB_88-2" target="LeQnPKJJJZOY4ZSQB_88-8" edge="1">
          <mxGeometry relative="1" as="geometry">
            <mxPoint x="660" y="890" as="sourcePoint" />
            <mxPoint x="820" y="890" as="targetPoint" />
          </mxGeometry>
        </mxCell>
        <mxCell id="swclK0hr6jgIHcODTy4m-19" value="" style="endArrow=none;html=1;rounded=0;exitX=1;exitY=0.5;exitDx=0;exitDy=0;entryX=0;entryY=0.5;entryDx=0;entryDy=0;" parent="1" source="LeQnPKJJJZOY4ZSQB_88-2" target="LeQnPKJJJZOY4ZSQB_88-9" edge="1">
          <mxGeometry relative="1" as="geometry">
            <mxPoint x="660" y="890" as="sourcePoint" />
            <mxPoint x="820" y="890" as="targetPoint" />
          </mxGeometry>
        </mxCell>
        <mxCell id="swclK0hr6jgIHcODTy4m-21" value="" style="endArrow=none;html=1;rounded=0;exitX=1;exitY=0.5;exitDx=0;exitDy=0;entryX=0;entryY=0;entryDx=0;entryDy=0;" parent="1" source="LeQnPKJJJZOY4ZSQB_88-2" target="LeQnPKJJJZOY4ZSQB_88-143" edge="1">
          <mxGeometry relative="1" as="geometry">
            <mxPoint x="660" y="890" as="sourcePoint" />
            <mxPoint x="820" y="890" as="targetPoint" />
          </mxGeometry>
        </mxCell>
        <mxCell id="swclK0hr6jgIHcODTy4m-22" value="" style="endArrow=none;html=1;rounded=0;exitX=1;exitY=0.5;exitDx=0;exitDy=0;entryX=0.5;entryY=0;entryDx=0;entryDy=0;" parent="1" source="LeQnPKJJJZOY4ZSQB_88-2" target="LeQnPKJJJZOY4ZSQB_88-10" edge="1">
          <mxGeometry relative="1" as="geometry">
            <mxPoint x="660" y="890" as="sourcePoint" />
            <mxPoint x="820" y="890" as="targetPoint" />
          </mxGeometry>
        </mxCell>
        <mxCell id="swclK0hr6jgIHcODTy4m-26" value="MADE_BY" style="shape=rhombus;perimeter=rhombusPerimeter;whiteSpace=wrap;html=1;align=center;" parent="1" vertex="1">
          <mxGeometry x="549" y="710" width="121" height="60" as="geometry" />
        </mxCell>
        <mxCell id="swclK0hr6jgIHcODTy4m-28" value="" style="endArrow=none;html=1;rounded=0;exitX=0.5;exitY=1;exitDx=0;exitDy=0;entryX=0;entryY=0.5;entryDx=0;entryDy=0;shape=link;" parent="1" source="swclK0hr6jgIHcODTy4m-1" target="swclK0hr6jgIHcODTy4m-26" edge="1">
          <mxGeometry relative="1" as="geometry">
            <mxPoint x="660" y="780" as="sourcePoint" />
            <mxPoint x="820" y="780" as="targetPoint" />
          </mxGeometry>
        </mxCell>
        <mxCell id="swclK0hr6jgIHcODTy4m-29" value="N" style="resizable=0;html=1;whiteSpace=wrap;align=right;verticalAlign=bottom;" parent="swclK0hr6jgIHcODTy4m-28" connectable="0" vertex="1">
          <mxGeometry x="1" relative="1" as="geometry">
            <mxPoint x="11" y="-6" as="offset" />
          </mxGeometry>
        </mxCell>
        <mxCell id="swclK0hr6jgIHcODTy4m-30" value="" style="endArrow=none;html=1;rounded=0;exitX=0.5;exitY=0;exitDx=0;exitDy=0;entryX=1;entryY=0.5;entryDx=0;entryDy=0;" parent="1" source="LeQnPKJJJZOY4ZSQB_88-2" target="swclK0hr6jgIHcODTy4m-26" edge="1">
          <mxGeometry relative="1" as="geometry">
            <mxPoint x="660" y="780" as="sourcePoint" />
            <mxPoint x="820" y="780" as="targetPoint" />
          </mxGeometry>
        </mxCell>
        <mxCell id="swclK0hr6jgIHcODTy4m-31" value="1" style="resizable=0;html=1;whiteSpace=wrap;align=right;verticalAlign=bottom;" parent="swclK0hr6jgIHcODTy4m-30" connectable="0" vertex="1">
          <mxGeometry x="1" relative="1" as="geometry">
            <mxPoint x="-1" y="23" as="offset" />
          </mxGeometry>
        </mxCell>
        <mxCell id="swclK0hr6jgIHcODTy4m-32" value="CONTAINS" style="shape=rhombus;perimeter=rhombusPerimeter;whiteSpace=wrap;html=1;align=center;" parent="1" vertex="1">
          <mxGeometry x="352.5" y="710" width="121" height="60" as="geometry" />
        </mxCell>
        <mxCell id="swclK0hr6jgIHcODTy4m-33" value="" style="endArrow=none;html=1;rounded=0;exitX=0;exitY=0.5;exitDx=0;exitDy=0;entryX=1;entryY=0;entryDx=0;entryDy=0;" parent="1" source="swclK0hr6jgIHcODTy4m-32" target="w-YQBFerk2edwHT0W-1V-1" edge="1">
          <mxGeometry relative="1" as="geometry">
            <mxPoint x="660" y="780" as="sourcePoint" />
            <mxPoint x="820" y="780" as="targetPoint" />
          </mxGeometry>
        </mxCell>
        <mxCell id="swclK0hr6jgIHcODTy4m-34" value="N" style="resizable=0;html=1;whiteSpace=wrap;align=right;verticalAlign=bottom;" parent="swclK0hr6jgIHcODTy4m-33" connectable="0" vertex="1">
          <mxGeometry x="1" relative="1" as="geometry">
            <mxPoint x="36" y="-218" as="offset" />
          </mxGeometry>
        </mxCell>
        <mxCell id="swclK0hr6jgIHcODTy4m-36" value="" style="endArrow=none;html=1;rounded=0;exitX=0.5;exitY=1;exitDx=0;exitDy=0;entryX=1;entryY=0.5;entryDx=0;entryDy=0;shape=link;" parent="1" source="swclK0hr6jgIHcODTy4m-1" target="swclK0hr6jgIHcODTy4m-32" edge="1">
          <mxGeometry relative="1" as="geometry">
            <mxPoint x="660" y="780" as="sourcePoint" />
            <mxPoint x="820" y="780" as="targetPoint" />
          </mxGeometry>
        </mxCell>
        <mxCell id="swclK0hr6jgIHcODTy4m-37" value="M" style="resizable=0;html=1;whiteSpace=wrap;align=right;verticalAlign=bottom;" parent="swclK0hr6jgIHcODTy4m-36" connectable="0" vertex="1">
          <mxGeometry x="1" relative="1" as="geometry">
            <mxPoint x="-1" y="-5" as="offset" />
          </mxGeometry>
        </mxCell>
        <mxCell id="swclK0hr6jgIHcODTy4m-40" value="purchase_qty" style="ellipse;whiteSpace=wrap;html=1;align=center;" parent="1" vertex="1">
          <mxGeometry x="330" y="670" width="90" height="40" as="geometry" />
        </mxCell>
        <mxCell id="swclK0hr6jgIHcODTy4m-41" value="" style="endArrow=none;html=1;rounded=0;exitX=1;exitY=1;exitDx=0;exitDy=0;entryX=0.5;entryY=0;entryDx=0;entryDy=0;" parent="1" source="swclK0hr6jgIHcODTy4m-40" target="swclK0hr6jgIHcODTy4m-32" edge="1">
          <mxGeometry relative="1" as="geometry">
            <mxPoint x="580" y="770" as="sourcePoint" />
            <mxPoint x="740" y="770" as="targetPoint" />
          </mxGeometry>
        </mxCell>
        <mxCell id="swclK0hr6jgIHcODTy4m-43" value="order_id" style="ellipse;whiteSpace=wrap;html=1;align=center;fontStyle=4" parent="1" vertex="1">
          <mxGeometry x="380" y="590" width="66" height="40" as="geometry" />
        </mxCell>
        <mxCell id="swclK0hr6jgIHcODTy4m-44" value="" style="endArrow=none;html=1;rounded=0;exitX=1;exitY=1;exitDx=0;exitDy=0;entryX=0.5;entryY=0;entryDx=0;entryDy=0;" parent="1" source="swclK0hr6jgIHcODTy4m-43" target="swclK0hr6jgIHcODTy4m-1" edge="1">
          <mxGeometry relative="1" as="geometry">
            <mxPoint x="580" y="770" as="sourcePoint" />
            <mxPoint x="740" y="770" as="targetPoint" />
          </mxGeometry>
        </mxCell>
        <mxCell id="swclK0hr6jgIHcODTy4m-47" value="payment_type" style="ellipse;whiteSpace=wrap;html=1;align=center;fontStyle=0" parent="1" vertex="1">
          <mxGeometry x="500" y="505" width="92.5" height="40" as="geometry" />
        </mxCell>
        <mxCell id="swclK0hr6jgIHcODTy4m-48" value="" style="endArrow=none;html=1;rounded=0;exitX=0.5;exitY=1;exitDx=0;exitDy=0;entryX=0.5;entryY=0;entryDx=0;entryDy=0;" parent="1" source="swclK0hr6jgIHcODTy4m-47" target="swclK0hr6jgIHcODTy4m-1" edge="1">
          <mxGeometry relative="1" as="geometry">
            <mxPoint x="496" y="595" as="sourcePoint" />
            <mxPoint x="524" y="650" as="targetPoint" />
          </mxGeometry>
        </mxCell>
        <mxCell id="swclK0hr6jgIHcODTy4m-49" value="address" style="ellipse;whiteSpace=wrap;html=1;align=center;fontStyle=0" parent="1" vertex="1">
          <mxGeometry x="539" y="556" width="70" height="40" as="geometry" />
        </mxCell>
        <mxCell id="swclK0hr6jgIHcODTy4m-50" value="" style="endArrow=none;html=1;rounded=0;exitX=0;exitY=1;exitDx=0;exitDy=0;entryX=0.5;entryY=0;entryDx=0;entryDy=0;" parent="1" source="swclK0hr6jgIHcODTy4m-49" target="swclK0hr6jgIHcODTy4m-1" edge="1">
          <mxGeometry relative="1" as="geometry">
            <mxPoint x="580" y="660" as="sourcePoint" />
            <mxPoint x="740" y="660" as="targetPoint" />
          </mxGeometry>
        </mxCell>
        <mxCell id="swclK0hr6jgIHcODTy4m-54" value="status_record" style="ellipse;shape=doubleEllipse;margin=3;whiteSpace=wrap;html=1;align=center;" parent="1" vertex="1">
          <mxGeometry x="580" y="610" width="100" height="40" as="geometry" />
        </mxCell>
        <mxCell id="swclK0hr6jgIHcODTy4m-55" value="" style="endArrow=none;html=1;rounded=0;exitX=0;exitY=0.5;exitDx=0;exitDy=0;entryX=0.5;entryY=0;entryDx=0;entryDy=0;" parent="1" source="swclK0hr6jgIHcODTy4m-54" target="swclK0hr6jgIHcODTy4m-1" edge="1">
          <mxGeometry relative="1" as="geometry">
            <mxPoint x="580" y="770" as="sourcePoint" />
            <mxPoint x="740" y="770" as="targetPoint" />
          </mxGeometry>
        </mxCell>
        <mxCell id="swclK0hr6jgIHcODTy4m-56" value="status" style="ellipse;whiteSpace=wrap;html=1;align=center;" parent="1" vertex="1">
          <mxGeometry x="692" y="576" width="60" height="39" as="geometry" />
        </mxCell>
        <mxCell id="swclK0hr6jgIHcODTy4m-57" value="status_date" style="ellipse;whiteSpace=wrap;html=1;align=center;" parent="1" vertex="1">
          <mxGeometry x="747.5" y="600" width="80" height="40" as="geometry" />
        </mxCell>
        <mxCell id="swclK0hr6jgIHcODTy4m-59" value="" style="endArrow=none;html=1;rounded=0;exitX=0;exitY=1;exitDx=0;exitDy=0;entryX=1;entryY=0.5;entryDx=0;entryDy=0;" parent="1" source="swclK0hr6jgIHcODTy4m-56" target="swclK0hr6jgIHcODTy4m-54" edge="1">
          <mxGeometry relative="1" as="geometry">
            <mxPoint x="580" y="660" as="sourcePoint" />
            <mxPoint x="740" y="660" as="targetPoint" />
          </mxGeometry>
        </mxCell>
        <mxCell id="swclK0hr6jgIHcODTy4m-61" value="" style="endArrow=none;html=1;rounded=0;exitX=1;exitY=0.5;exitDx=0;exitDy=0;entryX=0;entryY=0.5;entryDx=0;entryDy=0;" parent="1" source="swclK0hr6jgIHcODTy4m-54" target="swclK0hr6jgIHcODTy4m-57" edge="1">
          <mxGeometry relative="1" as="geometry">
            <mxPoint x="580" y="660" as="sourcePoint" />
            <mxPoint x="740" y="660" as="targetPoint" />
          </mxGeometry>
        </mxCell>
        <mxCell id="AGfo26yFazJZOsJGmMm4-1" value="sub_total" style="ellipse;whiteSpace=wrap;html=1;align=center;fontStyle=0" parent="1" vertex="1">
          <mxGeometry x="360" y="545" width="70" height="40" as="geometry" />
        </mxCell>
        <mxCell id="AGfo26yFazJZOsJGmMm4-2" value="shipping_fee" style="ellipse;whiteSpace=wrap;html=1;align=center;fontStyle=0" parent="1" vertex="1">
          <mxGeometry x="386.5" y="505" width="81" height="40" as="geometry" />
        </mxCell>
        <mxCell id="AGfo26yFazJZOsJGmMm4-6" value="" style="endArrow=none;html=1;rounded=0;entryX=0.5;entryY=0;entryDx=0;entryDy=0;exitX=1;exitY=1;exitDx=0;exitDy=0;" parent="1" source="AGfo26yFazJZOsJGmMm4-1" target="swclK0hr6jgIHcODTy4m-1" edge="1">
          <mxGeometry relative="1" as="geometry">
            <mxPoint x="420" y="580" as="sourcePoint" />
            <mxPoint x="660" y="660" as="targetPoint" />
          </mxGeometry>
        </mxCell>
        <mxCell id="AGfo26yFazJZOsJGmMm4-8" value="total_price" style="ellipse;whiteSpace=wrap;html=1;align=center;dashed=1;" parent="1" vertex="1">
          <mxGeometry x="459" y="545" width="72.5" height="40" as="geometry" />
        </mxCell>
        <mxCell id="AGfo26yFazJZOsJGmMm4-9" value="" style="endArrow=none;html=1;rounded=0;exitX=0.5;exitY=1;exitDx=0;exitDy=0;entryX=0.5;entryY=0;entryDx=0;entryDy=0;" parent="1" source="AGfo26yFazJZOsJGmMm4-2" target="swclK0hr6jgIHcODTy4m-1" edge="1">
          <mxGeometry relative="1" as="geometry">
            <mxPoint x="500" y="660" as="sourcePoint" />
            <mxPoint x="660" y="660" as="targetPoint" />
          </mxGeometry>
        </mxCell>
        <mxCell id="AGfo26yFazJZOsJGmMm4-10" value="" style="endArrow=none;html=1;rounded=0;exitX=0.5;exitY=1;exitDx=0;exitDy=0;entryX=0.5;entryY=0;entryDx=0;entryDy=0;" parent="1" source="AGfo26yFazJZOsJGmMm4-8" target="swclK0hr6jgIHcODTy4m-1" edge="1">
          <mxGeometry relative="1" as="geometry">
            <mxPoint x="500" y="660" as="sourcePoint" />
            <mxPoint x="660" y="660" as="targetPoint" />
          </mxGeometry>
        </mxCell>
        <mxCell id="uAEkFmMUQwEDWhcwce5n-1" value="status_description" style="ellipse;whiteSpace=wrap;html=1;align=center;" parent="1" vertex="1">
          <mxGeometry x="680" y="640" width="110" height="40" as="geometry" />
        </mxCell>
        <mxCell id="uAEkFmMUQwEDWhcwce5n-5" value="" style="endArrow=none;html=1;rounded=0;exitX=1;exitY=0.5;exitDx=0;exitDy=0;entryX=0;entryY=0;entryDx=0;entryDy=0;" parent="1" source="swclK0hr6jgIHcODTy4m-54" target="uAEkFmMUQwEDWhcwce5n-1" edge="1">
          <mxGeometry relative="1" as="geometry">
            <mxPoint x="700" y="700" as="sourcePoint" />
            <mxPoint x="860" y="700" as="targetPoint" />
          </mxGeometry>
        </mxCell>
        <mxCell id="Agn__o38U4jkMlJwLZ9_-1" value="ideal_rcv_date" style="ellipse;whiteSpace=wrap;html=1;align=center;" parent="1" vertex="1">
          <mxGeometry x="690" y="534" width="90" height="40" as="geometry" />
        </mxCell>
        <mxCell id="Agn__o38U4jkMlJwLZ9_-5" value="" style="endArrow=none;html=1;rounded=0;exitX=0;exitY=1;exitDx=0;exitDy=0;entryX=0.5;entryY=0;entryDx=0;entryDy=0;" parent="1" source="Agn__o38U4jkMlJwLZ9_-1" target="swclK0hr6jgIHcODTy4m-1" edge="1">
          <mxGeometry relative="1" as="geometry">
            <mxPoint x="520" y="610" as="sourcePoint" />
            <mxPoint x="680" y="610" as="targetPoint" />
          </mxGeometry>
        </mxCell>
        <mxCell id="Agn__o38U4jkMlJwLZ9_-16" value="order_date" style="ellipse;whiteSpace=wrap;html=1;align=center;" parent="1" vertex="1">
          <mxGeometry x="606" y="529" width="80" height="40" as="geometry" />
        </mxCell>
        <mxCell id="Agn__o38U4jkMlJwLZ9_-17" value="" style="endArrow=none;html=1;rounded=0;exitX=0.5;exitY=1;exitDx=0;exitDy=0;entryX=0.5;entryY=0;entryDx=0;entryDy=0;" parent="1" source="Agn__o38U4jkMlJwLZ9_-16" target="swclK0hr6jgIHcODTy4m-1" edge="1">
          <mxGeometry relative="1" as="geometry">
            <mxPoint x="570" y="730" as="sourcePoint" />
            <mxPoint x="730" y="730" as="targetPoint" />
          </mxGeometry>
        </mxCell>
        <mxCell id="w-YQBFerk2edwHT0W-1V-1" value="CLOTHES_COLOR_SIZE" style="shape=ext;margin=3;double=1;whiteSpace=wrap;html=1;align=center;" vertex="1" parent="1">
          <mxGeometry x="170" y="980" width="160" height="40" as="geometry" />
        </mxCell>
        <mxCell id="w-YQBFerk2edwHT0W-1V-2" value="HAVE_SIZES" style="shape=rhombus;double=1;perimeter=rhombusPerimeter;whiteSpace=wrap;html=1;align=center;" vertex="1" parent="1">
          <mxGeometry x="180" y="890" width="140" height="60" as="geometry" />
        </mxCell>
        <mxCell id="w-YQBFerk2edwHT0W-1V-3" value="" style="endArrow=none;html=1;rounded=0;exitX=0.5;exitY=1;exitDx=0;exitDy=0;entryX=0.5;entryY=0;entryDx=0;entryDy=0;" edge="1" parent="1" source="LeQnPKJJJZOY4ZSQB_88-63" target="w-YQBFerk2edwHT0W-1V-2">
          <mxGeometry relative="1" as="geometry">
            <mxPoint x="260" y="730" as="sourcePoint" />
            <mxPoint x="260" y="760" as="targetPoint" />
          </mxGeometry>
        </mxCell>
        <mxCell id="w-YQBFerk2edwHT0W-1V-4" value="1" style="resizable=0;html=1;whiteSpace=wrap;align=right;verticalAlign=bottom;" connectable="0" vertex="1" parent="w-YQBFerk2edwHT0W-1V-3">
          <mxGeometry x="1" relative="1" as="geometry">
            <mxPoint x="-3" y="3" as="offset" />
          </mxGeometry>
        </mxCell>
        <mxCell id="w-YQBFerk2edwHT0W-1V-5" value="" style="endArrow=none;html=1;rounded=0;entryX=0.5;entryY=1;entryDx=0;entryDy=0;shape=link;" edge="1" parent="1" source="w-YQBFerk2edwHT0W-1V-1" target="w-YQBFerk2edwHT0W-1V-2">
          <mxGeometry relative="1" as="geometry">
            <mxPoint x="260" y="850" as="sourcePoint" />
            <mxPoint x="260" y="820" as="targetPoint" />
          </mxGeometry>
        </mxCell>
        <mxCell id="w-YQBFerk2edwHT0W-1V-6" value="N" style="resizable=0;html=1;whiteSpace=wrap;align=right;verticalAlign=bottom;" connectable="0" vertex="1" parent="w-YQBFerk2edwHT0W-1V-5">
          <mxGeometry x="1" relative="1" as="geometry">
            <mxPoint x="-4" y="17" as="offset" />
          </mxGeometry>
        </mxCell>
        <mxCell id="w-YQBFerk2edwHT0W-1V-7" value="&lt;span style=&quot;border-bottom: 1px dotted&quot;&gt;size&lt;/span&gt;" style="ellipse;whiteSpace=wrap;html=1;align=center;" vertex="1" parent="1">
          <mxGeometry x="90" y="930" width="70" height="40" as="geometry" />
        </mxCell>
        <mxCell id="w-YQBFerk2edwHT0W-1V-8" value="" style="endArrow=none;html=1;rounded=0;exitX=0;exitY=0.5;exitDx=0;exitDy=0;entryX=1;entryY=1;entryDx=0;entryDy=0;" edge="1" parent="1" source="w-YQBFerk2edwHT0W-1V-1" target="w-YQBFerk2edwHT0W-1V-7">
          <mxGeometry relative="1" as="geometry">
            <mxPoint x="195" y="860" as="sourcePoint" />
            <mxPoint x="161" y="843" as="targetPoint" />
          </mxGeometry>
        </mxCell>
      </root>
    </mxGraphModel>
  </diagram>
</mxfile>
